<svg width="23" height="23" viewBox="0 0 23 23" fill="none" xmlns="http://www.w3.org/2000/svg">
<g clip-path="url(#clip0_54_954)">
<path d="M22.577 11.2393C22.577 5.07865 17.5828 0.0844727 11.4222 0.0844727C5.26152 0.0844727 0.267334 5.07865 0.267334 11.2393C0.267334 16.8069 4.34647 21.4218 9.67922 22.2586V14.4637H6.84694V11.2393H9.67922V8.78175C9.67922 5.98607 11.3446 4.44183 13.8926 4.44183C15.1126 4.44183 16.3895 4.65969 16.3895 4.65969V7.40483H14.983C13.5974 7.40483 13.1651 8.26475 13.1651 9.14777V11.2393H16.2588L15.7643 14.4637H13.1651V22.2586C18.4978 21.4218 22.577 16.8069 22.577 11.2393Z" fill="white"/>
<path d="M15.7642 14.4638L16.2588 11.2394H13.1651V9.14784C13.1651 8.26569 13.5973 7.4049 14.983 7.4049H16.3895V4.65976C16.3895 4.65976 15.113 4.44189 13.8925 4.44189C11.3446 4.44189 9.6792 5.98614 9.6792 8.78182V11.2394H6.84692V14.4638H9.6792V22.2587C10.8341 22.4394 12.0102 22.4394 13.1651 22.2587V14.4638H15.7642Z" fill="#1877F2"/>
</g>
<defs>
<clipPath id="clip0_54_954">
<rect width="22.3097" height="22.3097" fill="white" transform="translate(0.267334 0.0844727)"/>
</clipPath>
</defs>
</svg>
