<svg width="23" height="23" viewBox="0 0 23 23" fill="none" xmlns="http://www.w3.org/2000/svg">
<g clip-path="url(#clip0_54_938)">
<path fill-rule="evenodd" clip-rule="evenodd" d="M20.5055 15.1754C18.1637 17.8883 12.9365 21.1795 11.7447 21.6842C10.6044 22.1671 10.7178 21.4373 10.7663 21.1246L10.7724 21.0849C10.7933 20.9727 10.8456 20.6538 10.9292 20.128C10.971 19.8336 11.0129 19.392 10.8979 19.1081C10.7724 18.7926 10.2811 18.6349 9.91516 18.5508C4.55206 17.8463 0.589844 14.0713 0.589844 9.5709C0.589844 4.55521 5.58704 0.464844 11.7447 0.464844C17.8919 0.464844 22.8995 4.55521 22.8995 9.5709C22.8995 11.5793 22.1154 13.3879 20.5055 15.1754ZM19.014 12.294H15.8777C15.7627 12.294 15.6686 12.1994 15.6686 12.0837V12.0732V7.1837C15.6686 7.06804 15.7627 6.9734 15.8777 6.9734H19.014C19.129 6.9734 19.2231 7.06804 19.2231 7.1837V7.98285C19.2231 8.09851 19.129 8.19315 19.014 8.19315H16.8813V9.02384H19.014C19.129 9.02384 19.2231 9.11848 19.2231 9.23414V10.0333C19.2231 10.149 19.129 10.2436 19.014 10.2436H16.8813V11.0743H19.014C19.129 11.0743 19.2231 11.1689 19.2231 11.2846V12.0837C19.2231 12.1994 19.129 12.294 19.014 12.294ZM4.28376 12.294H4.29422H7.42008C7.53508 12.294 7.62917 12.1994 7.62917 12.0837V11.2846C7.62917 11.1689 7.53508 11.0743 7.42008 11.0743H5.28739V7.1837C5.28739 7.06804 5.1933 6.9734 5.0783 6.9734H4.28376C4.16876 6.9734 4.07468 7.06804 4.07468 7.1837V12.0732V12.0837C4.07468 12.1994 4.16876 12.294 4.28376 12.294ZM9.30162 6.9734H8.50726C8.39181 6.9734 8.29821 7.06756 8.29821 7.1837V12.0837C8.29821 12.1999 8.39181 12.294 8.50726 12.294H9.30162C9.41707 12.294 9.51067 12.1999 9.51067 12.0837V7.1837C9.51067 7.06756 9.41707 6.9734 9.30162 6.9734ZM14.9054 12.0837V7.1837C14.9054 7.06804 14.8113 6.9734 14.6859 6.9734H13.9018C13.7868 6.9734 13.6823 7.06804 13.6823 7.1837V10.0859L11.4555 7.06803C11.4555 7.06102 11.452 7.05401 11.445 7.047L11.4241 7.02598L11.4137 7.01546H11.4032C11.4032 7.00845 11.3997 7.00495 11.3927 7.00495V6.99443H11.3718L11.3614 6.98391H11.3509C11.344 6.98391 11.3405 6.98041 11.3405 6.9734H11.33H11.3196H11.3091H11.2987H11.2882H11.2777H10.4937C10.3787 6.9734 10.2741 7.06804 10.2741 7.1837V12.0837C10.2741 12.1994 10.3787 12.294 10.4937 12.294H11.2777C11.4032 12.294 11.4973 12.1994 11.4973 12.0837V9.17105L13.7241 12.1994C13.738 12.2204 13.7554 12.2379 13.7763 12.252H13.7868C13.7868 12.259 13.7903 12.2625 13.7973 12.2625L13.8077 12.273H13.8182H13.8286V12.2835H13.8495C13.8635 12.2905 13.8809 12.294 13.9018 12.294H14.6859C14.8113 12.294 14.9054 12.1994 14.9054 12.0837Z" fill="white"/>
</g>
<defs>
<clipPath id="clip0_54_938">
<rect width="22.3097" height="22.3097" fill="white" transform="translate(0.589844)"/>
</clipPath>
</defs>
</svg>
