<svg width="23" height="23" viewBox="0 0 23 23" fill="none" xmlns="http://www.w3.org/2000/svg">
<g clip-path="url(#clip0_54_949)">
<path d="M7.60578 20.2191C16.0246 20.2191 20.6293 13.2442 20.6293 7.19558C20.6293 6.99747 20.6293 6.80025 20.6159 6.60393C21.5117 5.95598 22.285 5.15369 22.8995 4.23464C22.0642 4.60498 21.178 4.84774 20.2705 4.9548C21.2261 4.38282 21.9413 3.48309 22.2829 2.4231C21.3844 2.95631 20.4014 3.33205 19.3764 3.53412C18.6862 2.8003 17.7735 2.31438 16.7794 2.15156C15.7853 1.98874 14.7652 2.15809 13.8771 2.63342C12.9889 3.10874 12.2822 3.86353 11.8662 4.78099C11.4502 5.69846 11.3482 6.72743 11.576 7.7087C9.75622 7.61741 7.97597 7.14448 6.3508 6.3206C4.72564 5.49672 3.29188 4.3403 2.1426 2.9264C1.55727 3.93405 1.378 5.1269 1.64128 6.26209C1.90456 7.39727 2.59059 8.38944 3.5597 9.03657C2.83125 9.01523 2.11866 8.81871 1.48223 8.46366V8.52166C1.48252 9.57844 1.84834 10.6026 2.51765 11.4204C3.18696 12.2382 4.11854 12.7993 5.1544 13.0086C4.48054 13.1924 3.7735 13.2193 3.08763 13.0871C3.38024 13.9965 3.9497 14.7918 4.71642 15.3617C5.48314 15.9316 6.40878 16.2477 7.36395 16.2658C6.41493 17.0117 5.32815 17.5633 4.16578 17.8888C3.00341 18.2144 1.78826 18.3075 0.589844 18.163C2.68308 19.5062 5.11863 20.2188 7.60578 20.2155" fill="white"/>
</g>
<defs>
<clipPath id="clip0_54_949">
<rect width="22.3097" height="22.3097" fill="white" transform="translate(0.589844)"/>
</clipPath>
</defs>
</svg>
